# xmcd
#
# Track frame offsets:
#	150
#	19527
#	38586
#	57985
#	71081
#	90604
#	108305
#	143626
#	159424
#	174466
#	186618
#	217875
#	253439
#
# Disc length: 3806 seconds
#
# Revision: 0
# Processed by: cddbd v1.5.2PL0 Copyright (c) Steve Scherf et al.
# Submitted via: EZCDAudioConverter 2.1.7.1
#
DISCID=b40edc0d
DTITLE=Goat - Requiem
DYEAR=1900
DGENRE=
TTITLE0=Union Of Sun And Moon
TTITLE1=I Sing In Silence
TTITLE2=Temple Rhythms
TTITLE3=Alarms
TTITLE4=Trouble In The Streets
TTITLE5=Psychedelic Lover
TTITLE6=Goatband
TTITLE7=Try My Robe
TTITLE8=It's Not Me
TTITLE9=All-Seeing Eye
TTITLE10=Goatfuzz
TTITLE11=Goodbye
TTITLE12=Ubuntu
EXTD=
EXTT0=
EXTT1=
EXTT2=
EXTT3=
EXTT4=
EXTT5=
EXTT6=
EXTT7=
EXTT8=
EXTT9=
EXTT10=
EXTT11=
EXTT12=
PLAYORDER=
